<?xml version="1.0" encoding="utf-8"?>
<!-- Generator: Adobe Illustrator 20.1.0, SVG Export Plug-In . SVG Version: 6.00 Build 0)  -->
<svg version="1.1" id="Layer_1" xmlns="http://www.w3.org/2000/svg" xmlns:xlink="http://www.w3.org/1999/xlink" x="0px" y="0px"
	 viewBox="0 0 205 205" style="enable-background:new 0 0 205 205;" xml:space="preserve">
<style type="text/css">
	.st0{fill:none;stroke:#FFFFFF;stroke-width:4;stroke-miterlimit:10;}
	.st1{fill:#FFFFFF;}
	.st2{stroke:#FFFFFF;stroke-width:4;stroke-linecap:round;stroke-linejoin:round;stroke-miterlimit:10;}
</style>
<g id="watch_icon">
	<circle class="st0" cx="102.5" cy="102.5" r="97.3"/>
	<circle class="st1" cx="102.5" cy="102.5" r="8"/>
	<circle class="st1" cx="102.5" cy="21.4" r="6.3"/>
	<circle class="st1" cx="183.6" cy="102.5" r="6.3"/>
	<circle class="st1" cx="102.5" cy="183.6" r="6.3"/>
	<circle class="st1" cx="21.4" cy="102.5" r="6.3"/>
	<line class="st2" x1="102.5" y1="102.5" x2="139.2" y2="102.5"/>
	<line class="st2" x1="102.5" y1="102.5" x2="102.5" y2="45.1"/>
	<circle class="st1" cx="102.5" cy="21.4" r="6.3"/>
	<circle class="st1" cx="183.6" cy="102.5" r="6.3"/>
	<circle class="st1" cx="102.5" cy="183.6" r="6.3"/>
	<circle class="st1" cx="21.4" cy="102.5" r="6.3"/>
	<ellipse transform="matrix(0.7071 -0.7071 0.7071 0.7071 14.9121 126.2624)" class="st1" cx="159.9" cy="45.1" rx="6.3" ry="6.3"/>
	
		<ellipse transform="matrix(0.7071 -0.7071 0.7071 0.7071 -66.2201 159.8694)" class="st1" cx="159.9" cy="159.9" rx="6.3" ry="6.3"/>
	<ellipse transform="matrix(0.7071 -0.7071 0.7071 0.7071 -99.8268 78.7376)" class="st1" cx="45.1" cy="159.9" rx="6.3" ry="6.3"/>
	<ellipse transform="matrix(0.7071 -0.7071 0.7071 0.7071 -18.6937 45.1306)" class="st1" cx="45.1" cy="45.1" rx="6.3" ry="6.3"/>
</g>
</svg>
