<?xml version="1.0" encoding="utf-8"?>
<!-- Generator: Adobe Illustrator 20.1.0, SVG Export Plug-In . SVG Version: 6.00 Build 0)  -->
<svg version="1.1"
	 xmlns="http://www.w3.org/2000/svg"
	 xmlns:xlink="http://www.w3.org/1999/xlink"
	 x="0px"
	 y="0px"
	 viewBox="0 0 170 124"
	 style="enable-background:new 0 0 170 124;"
	 xml:space="preserve">
	<path fill="#12143C" d="M128,39.6c-1.1,0-1.9-0.8-2-1.9C125.2,20,110.7,6.2,93,6.2c-10.8,0-21,5.3-27.2,14.3c-0.6,0.9-1.9,1.1-2.8,0.5c-0.9-0.6-1.1-1.9-0.5-2.8c6.9-10,18.3-16,30.5-16c19.8,0,36.1,15.5,37,35.3C130,38.6,129.2,39.5,128,39.6C128,39.6,128,39.6,128,39.6z"/>
	<path fill="#12143C" d="M124.9,86.8c-1.1,0-2-0.9-2-2s0.9-2,2-2c11.9,0,21.6-9.7,21.6-21.6s-9.7-21.6-21.6-21.6c-10.2,0-19.1,7.3-21.2,17.2c-0.2,1.1-1.3,1.8-2.4,1.6c-1.1-0.2-1.8-1.3-1.6-2.4c2.4-11.8,13-20.4,25.1-20.4c14.1,0,25.6,11.5,25.6,25.6C150.5,75.3,139,86.8,124.9,86.8z"/>
	<path fill="#12143C" d="M68.5,86.8H44.8c0,0-0.1,0-0.1,0c-14.2-0.7-25.2-12.4-25.2-26.6c0-11,6.6-20.7,16.8-24.8c1-0.4,2.2,0.1,2.6,1.1c0.4,1-0.1,2.2-1.1,2.6c-8.7,3.4-14.3,11.7-14.3,21c0,12,9.4,22,21.4,22.6h23.6c1.1,0,2,0.9,2,2S69.6,86.8,68.5,86.8z"/>
	<path fill="#12143C" d="M37,38.8c-0.9,0-1.7-0.6-1.9-1.5c-0.3-1.5-0.5-2.9-0.5-4.5c0-10.5,8.5-19,19-19c10.5,0,19,8.5,19,19c0,1.1-0.9,2-2,2c-1.1,0-2-0.9-2-2c0-8.2-6.7-15-15-15s-15,6.7-15,15c0,1.2,0.1,2.4,0.4,3.5c0.3,1.1-0.4,2.2-1.5,2.4C37.3,38.8,37.2,38.8,37,38.8z"/>
	<path fill="#12143C" d="M93.4,98.4c-0.5,0-1-0.3-1.3-0.7c-0.4-0.7-0.2-1.6,0.5-2.1l4.4-2.6c0.7-0.4,1.6-0.2,2.1,0.5c0.4,0.7,0.2,1.6-0.5,2.1l-4.4,2.6C94,98.3,93.7,98.4,93.4,98.4z"/>
	<path fill="#12143C" d="M102.2,98.4c-0.3,0-0.5-0.1-0.8-0.2l-4.4-2.6c-0.7-0.4-0.9-1.3-0.5-2.1c0.4-0.7,1.3-0.9,2.1-0.5l4.4,2.6c0.7,0.4,0.9,1.3,0.5,2.1C103.3,98.1,102.8,98.4,102.2,98.4z"/>
	<path fill="#12143C" d="M97.8,78.4c-0.3,0-0.5-0.1-0.8-0.2l-4.4-2.6c-0.7-0.4-0.9-1.3-0.5-2.1c0.4-0.7,1.3-0.9,2.1-0.5l4.4,2.6c0.7,0.4,0.9,1.3,0.5,2.1C98.9,78.1,98.4,78.4,97.8,78.4z"/>
	<path fill="#12143C" d="M97.8,78.4c-0.5,0-1-0.3-1.3-0.7c-0.4-0.7-0.2-1.6,0.5-2.1l4.4-2.6c0.7-0.4,1.6-0.2,2.1,0.5c0.4,0.7,0.2,1.6-0.5,2.1l-4.4,2.6C98.4,78.3,98.1,78.4,97.8,78.4z"/>
	<path fill="#12143C" d="M90.3,91.4c-0.2,0-0.5-0.1-0.7-0.2l-4.5-2.5c-0.7-0.4-1-1.3-0.6-2c0.4-0.7,1.3-1,2-0.6l4.5,2.5c0.7,0.4,1,1.3,0.6,2C91.3,91.1,90.8,91.4,90.3,91.4z"/>
	<path fill="#12143C" d="M90.2,96.5C90.2,96.5,90.2,96.5,90.2,96.5c-0.9,0-1.5-0.7-1.5-1.5l0.1-5.1c0-0.8,0.7-1.5,1.5-1.5c0.8,0,1.5,0.7,1.5,1.5L91.7,95C91.7,95.8,91,96.5,90.2,96.5z"/>
	<path fill="#12143C" d="M105.5,96.5c-0.8,0-1.5-0.7-1.5-1.5l-0.1-5.1c0-0.8,0.6-1.5,1.5-1.5c0.8,0,1.5,0.6,1.5,1.5L107,95C107,95.8,106.4,96.5,105.5,96.5C105.5,96.5,105.5,96.5,105.5,96.5z"/>
	<path fill="#12143C" d="M97.8,101.4c-0.8,0-1.5-0.7-1.5-1.5V71c0-0.8,0.7-1.5,1.5-1.5c0.8,0,1.5,0.7,1.5,1.5v28.9C99.3,100.8,98.7,101.4,97.8,101.4z"/>
	<path fill="#12143C" d="M85.3,94.2c-0.5,0-1-0.3-1.3-0.8c-0.4-0.7-0.2-1.6,0.5-2L109.6,77c0.7-0.4,1.6-0.2,2,0.5c0.4,0.7,0.2,1.6-0.5,2L86.1,94C85.8,94.2,85.6,94.2,85.3,94.2z"/>
	<path fill="#12143C" d="M105.3,82.7C105.3,82.7,105.3,82.7,105.3,82.7c-0.9,0-1.5-0.7-1.5-1.5l0.1-5.1c0-0.8,0.7-1.5,1.5-1.5c0.8,0,1.5,0.7,1.5,1.5l-0.1,5.1C106.8,82,106.1,82.7,105.3,82.7z"/>
	<path fill="#12143C" d="M109.8,85.2c-0.2,0-0.5-0.1-0.7-0.2l-4.5-2.5c-0.7-0.4-1-1.3-0.6-2c0.4-0.7,1.3-1,2-0.6l4.5,2.5c0.7,0.4,1,1.3,0.6,2C110.8,84.9,110.3,85.2,109.8,85.2z"/>
	<path fill="#12143C" d="M105.4,91.4c-0.5,0-1-0.3-1.3-0.8c-0.4-0.7-0.1-1.6,0.6-2l4.5-2.5c0.7-0.4,1.6-0.1,2,0.6c0.4,0.7,0.1,1.6-0.6,2l-4.5,2.5C105.9,91.3,105.7,91.4,105.4,91.4z"/>
	<path fill="#12143C" d="M110.4,94.2c-0.3,0-0.5-0.1-0.7-0.2L84.6,79.5c-0.7-0.4-1-1.3-0.5-2c0.4-0.7,1.3-1,2-0.5l25.1,14.5c0.7,0.4,1,1.3,0.5,2C111.4,93.9,110.9,94.2,110.4,94.2z"/>
	<path fill="#12143C" d="M85.9,85.2c-0.5,0-1-0.3-1.3-0.8c-0.4-0.7-0.1-1.6,0.6-2l4.5-2.5c0.7-0.4,1.6-0.1,2,0.6c0.4,0.7,0.1,1.6-0.6,2L86.6,85C86.4,85.1,86.1,85.2,85.9,85.2z"/>
	<path fill="#12143C" d="M90.4,82.7c-0.8,0-1.5-0.7-1.5-1.5l-0.1-5.1c0-0.8,0.6-1.5,1.5-1.5c0.9,0,1.5,0.6,1.5,1.5l0.1,5.1C91.9,82,91.2,82.7,90.4,82.7C90.4,82.7,90.4,82.7,90.4,82.7z"/>
	<path fill="#12143C" d="M60.7,119.4c-0.3,0-0.7-0.2-0.9-0.5c-0.3-0.5-0.1-1.1,0.3-1.4l3.5-2.1c0.5-0.3,1.1-0.1,1.4,0.3s0.1,1.1-0.3,1.4l-3.5,2.1C61.1,119.3,60.9,119.4,60.7,119.4z"/>
	<path fill="#12143C" d="M67.6,119.4c-0.2,0-0.4,0-0.5-0.1l-3.5-2.1c-0.5-0.3-0.6-0.9-0.3-1.4c0.3-0.5,0.9-0.6,1.4-0.3l3.5,2.1c0.5,0.3,0.6,0.9,0.3,1.4C68.3,119.2,68,119.4,67.6,119.4z"/>
	<path fill="#12143C" d="M64.2,103.7c-0.2,0-0.4,0-0.5-0.1l-3.5-2.1c-0.5-0.3-0.6-0.9-0.3-1.4c0.3-0.5,0.9-0.6,1.4-0.3l3.5,2.1c0.5,0.3,0.6,0.9,0.3,1.4C64.8,103.5,64.5,103.7,64.2,103.7z"/>
	<path fill="#12143C" d="M64.2,103.7c-0.3,0-0.7-0.2-0.9-0.5c-0.3-0.5-0.1-1.1,0.3-1.4l3.5-2.1c0.5-0.3,1.1-0.1,1.4,0.3c0.3,0.5,0.1,1.1-0.3,1.4l-3.5,2.1C64.5,103.7,64.3,103.7,64.2,103.7z"/>
	<path fill="#12143C" d="M58.2,113.9c-0.2,0-0.3,0-0.5-0.1l-3.5-2c-0.5-0.3-0.7-0.9-0.4-1.4c0.3-0.5,0.9-0.7,1.4-0.4l3.5,2c0.5,0.3,0.7,0.9,0.4,1.4C58.9,113.7,58.6,113.9,58.2,113.9z"/>
	<path fill="#12143C" d="M58.2,117.9C58.2,117.9,58.2,117.9,58.2,117.9c-0.6,0-1-0.5-1-1l0.1-4c0-0.6,0.5-1,1-1c0.6,0,1,0.5,1,1l-0.1,4C59.2,117.5,58.7,117.9,58.2,117.9z"/>
	<path fill="#12143C" d="M70.2,117.9c-0.5,0-1-0.4-1-1l-0.1-4c0-0.6,0.4-1,1-1c0,0,0,0,0,0c0.5,0,1,0.4,1,1l0.1,4C71.2,117.4,70.7,117.9,70.2,117.9C70.2,117.9,70.2,117.9,70.2,117.9z"/>
	<path fill="#12143C" d="M64.2,121.8c-0.6,0-1-0.4-1-1V98.1c0-0.6,0.4-1,1-1c0.6,0,1,0.4,1,1v22.7C65.2,121.3,64.7,121.8,64.2,121.8z"/>
	<path fill="#12143C" d="M54.4,116.1c-0.3,0-0.7-0.2-0.9-0.5c-0.3-0.5-0.1-1.1,0.4-1.4l19.6-11.3c0.5-0.3,1.1-0.1,1.4,0.4c0.3,0.5,0.1,1.1-0.4,1.4L54.8,116C54.7,116.1,54.5,116.1,54.4,116.1z"/>
	<path fill="#12143C" d="M70,107.1C70,107.1,70,107.1,70,107.1c-0.6,0-1-0.5-1-1l0.1-4c0-0.6,0.5-1,1-1c0.6,0,1,0.5,1,1l-0.1,4C71,106.6,70.6,107.1,70,107.1z"/>
	<path fill="#12143C" d="M73.5,109c-0.2,0-0.3,0-0.5-0.1l-3.5-2c-0.5-0.3-0.7-0.9-0.4-1.4c0.3-0.5,0.9-0.7,1.4-0.4l3.5,2c0.5,0.3,0.7,0.9,0.4,1.4C74.2,108.8,73.9,109,73.5,109z"/>
	<path fill="#12143C" d="M70.1,113.9c-0.4,0-0.7-0.2-0.9-0.5c-0.3-0.5-0.1-1.1,0.4-1.4l3.5-2c0.5-0.3,1.1-0.1,1.4,0.4c0.3,0.5,0.1,1.1-0.4,1.4l-3.5,2C70.4,113.8,70.3,113.9,70.1,113.9z"/>
	<path fill="#12143C" d="M74,116.1c-0.2,0-0.3,0-0.5-0.1l-19.6-11.3c-0.5-0.3-0.6-0.9-0.4-1.4c0.3-0.5,0.9-0.6,1.4-0.4l19.6,11.3c0.5,0.3,0.6,0.9,0.4,1.4C74.7,115.9,74.3,116.1,74,116.1z"/>
	<path fill="#12143C" d="M54.8,109c-0.4,0-0.7-0.2-0.9-0.5c-0.3-0.5-0.1-1.1,0.4-1.4l3.5-2c0.5-0.3,1.1-0.1,1.4,0.4c0.3,0.5,0.1,1.1-0.4,1.4l-3.5,2C55.1,109,55,109,54.8,109z"/>
	<path fill="#12143C" d="M58.3,107.1c-0.5,0-1-0.4-1-1l-0.1-4c0-0.6,0.4-1,1-1c0.5,0,1,0.4,1,1l0.1,4C59.3,106.6,58.9,107.1,58.3,107.1C58.3,107.1,58.3,107.1,58.3,107.1z"/>
</svg>
