<?xml version="1.0" encoding="utf-8"?>
<!-- Generator: Adobe Illustrator 20.1.0, SVG Export Plug-In . SVG Version: 6.00 Build 0)  -->
<svg version="1.1" id="Layer_4" xmlns="http://www.w3.org/2000/svg" xmlns:xlink="http://www.w3.org/1999/xlink" x="0px" y="0px"
	 viewBox="0 0 170 205" style="enable-background:new 0 0 170 205;" xml:space="preserve">
<style type="text/css">
	.st0{fill:none;stroke:#CCCCCC;stroke-width:2.75;stroke-linecap:round;stroke-linejoin:round;stroke-miterlimit:10;}
	.st1{fill:none;stroke:#000000;stroke-width:2.75;stroke-linecap:round;stroke-linejoin:round;stroke-miterlimit:10;}
</style>
<g>
	<line class="st0" x1="16.4" y1="179.3" x2="4.7" y2="192.5"/>
	<line class="st0" x1="46.8" y1="145.2" x2="22.6" y2="172.4"/>
	<line class="st0" x1="92.7" y1="93.4" x2="76.7" y2="111.4"/>
	<line class="st0" x1="140.3" y1="39.8" x2="122.1" y2="60.3"/>
	<path class="st1" d="M144.3,43.4l-8-7.1c-0.6-0.5-0.6-1.3-0.1-1.9l21-23.6c0.5-0.6,1.3-0.6,1.9-0.1l8,7.1c0.6,0.5,0.6,1.3,0.1,1.9
		l-21,23.6C145.7,43.8,144.8,43.8,144.3,43.4z"/>
	<path class="st1" d="M24.8,182.8L12,171.4c-0.2-0.2-0.2-0.5,0-0.7l2.8-3.2c0.2-0.2,0.5-0.2,0.7,0l12.8,11.4c0.2,0.2,0.2,0.5,0,0.7
		l-2.8,3.2C25.3,183,25,183,24.8,182.8z"/>
	<line class="st0" x1="153.6" y1="179.3" x2="165.3" y2="192.5"/>
	<line class="st0" x1="123.2" y1="145.2" x2="147.4" y2="172.4"/>
	<line class="st0" x1="77.3" y1="93.4" x2="93.3" y2="111.4"/>
	<line class="st0" x1="29.8" y1="39.9" x2="47.9" y2="60.3"/>
	<path class="st1" d="M25.7,43.4l8-7.1c0.6-0.5,0.6-1.3,0.1-1.9l-21-23.6c-0.5-0.6-1.3-0.6-1.9-0.1l-8,7.1c-0.6,0.5-0.6,1.3-0.1,1.9
		l21,23.6C24.3,43.8,25.2,43.8,25.7,43.4z"/>
	<path class="st1" d="M145.2,182.8l12.8-11.4c0.2-0.2,0.2-0.5,0-0.7l-2.8-3.2c-0.2-0.2-0.5-0.2-0.7,0l-12.8,11.4
		c-0.2,0.2-0.2,0.5,0,0.7l2.8,3.2C144.7,183,145,183,145.2,182.8z"/>
	<path d="M62,125.9L62,125.9c-3,0-5.4-2.4-5.4-5.4v-12.6c0-3,2.4-5.4,5.4-5.4l0,0c3,0,5.4,2.4,5.4,5.4v12.6
		C67.4,123.5,65,125.9,62,125.9z"/>
	<path d="M108,125.9L108,125.9c-3,0-5.4-2.4-5.4-5.4v-12.6c0-3,2.4-5.4,5.4-5.4h0c3,0,5.4,2.4,5.4,5.4v12.6
		C113.4,123.5,111,125.9,108,125.9z"/>
	<line class="st1" x1="93.9" y1="59.3" x2="121" y2="86.4"/>
	<line class="st1" x1="48.5" y1="13.9" x2="76.1" y2="41.5"/>
	<line class="st1" x1="93.9" y1="71.1" x2="120.3" y2="97.4"/>
	<line class="st1" x1="48.2" y1="25.4" x2="76.1" y2="53.2"/>
	<path class="st0" d="M76.1,202.3H47.9V16.8C47.9,9,54.2,2.7,62,2.7h0c7.8,0,14.1,6.3,14.1,14.1V202.3z"/>
	<path class="st0" d="M122.1,60.3v141.3c0,0.4-0.3,0.7-0.7,0.7H94.6c-0.4,0-0.7-0.3-0.7-0.7V16.8c0-7.8,6.3-14.1,14.1-14.1h0
		c7.8,0,14.1,6.3,14.1,14.1V60.3"/>
</g>
</svg>
